<svg width="13" height="13" viewBox="0 0 13 13" fill="none" xmlns="http://www.w3.org/2000/svg">
<path fill-rule="evenodd" clip-rule="evenodd" d="M11.4305 2.64596C11.7188 1.96636 11.0337 1.28117 10.3541 1.56949L2.00044 5.11344C1.30297 5.40934 1.34432 6.41151 2.0638 6.64893L4.98833 7.61403C5.1764 7.67609 5.32392 7.82362 5.38599 8.01168L6.35108 10.9362C6.58851 11.6557 7.59067 11.697 7.88657 10.9996L11.4305 2.64596ZM9.86587 0.418758C11.5801 -0.308511 13.3085 1.41986 12.5813 3.13414L9.0373 11.4878C8.2909 13.2471 5.76295 13.1428 5.16404 11.3279L4.29762 8.7024L1.67208 7.83597C-0.142794 7.23706 -0.247107 4.70911 1.51225 3.96272L9.86587 0.418758Z" fill="white"/>
</svg>
