<svg width="14" height="14" viewBox="0 0 14 14" fill="none" xmlns="http://www.w3.org/2000/svg">
<path d="M7 0.0279694C10.7969 0.0279694 13.875 3.10609 13.875 6.90297C13.875 10.6998 10.7969 13.778 7 13.778C3.20312 13.778 0.125 10.6998 0.125 6.90297C0.125 3.10609 3.20312 0.0279694 7 0.0279694ZM7.625 10.028C7.625 9.84016 7.625 7.09078 7.625 6.90297C7.625 6.55797 7.34531 6.27797 7 6.27797C6.65469 6.27797 6.375 6.55797 6.375 6.90297C6.375 7.09078 6.375 9.84016 6.375 10.028C6.375 10.373 6.65469 10.653 7 10.653C7.34531 10.653 7.625 10.373 7.625 10.028ZM7 5.34047C7.51781 5.34047 7.9375 4.92078 7.9375 4.40297C7.9375 3.88516 7.51781 3.46547 7 3.46547C6.48219 3.46547 6.0625 3.88516 6.0625 4.40297C6.0625 4.92078 6.48219 5.34047 7 5.34047Z" fill="white"/>
</svg>
