<?xml version="1.0" encoding="UTF-8" standalone="no"?>
<!DOCTYPE svg PUBLIC "-//W3C//DTD SVG 1.1//EN"
 "http://www.w3.org/Graphics/SVG/1.1/DTD/svg11.dtd">
<!-- Generated by graphviz version 2.47.0 (20210316.0004)
 -->
<!-- Title: dbml Pages: 1 -->
<svg width="1378pt" height="2314pt"
 viewBox="0.00 0.00 1377.60 2314.35" xmlns="http://www.w3.org/2000/svg" xmlns:xlink="http://www.w3.org/1999/xlink">
<g id="graph0" class="graph" transform="scale(1 1) rotate(0) translate(4 2310.35)">
<title>dbml</title>
<!-- Player -->
<g id="Player" class="node">
<title>Player</title>
<ellipse fill="none" stroke="black" stroke-width="0" cx="248.9" cy="-1456.39" rx="248.8" ry="427.19"/>
<polygon fill="#1d71b8" stroke="transparent" points="74.9,-1696.39 74.9,-1756.39 422.9,-1756.39 422.9,-1696.39 74.9,-1696.39"/>
<polygon fill="none" stroke="#29235c" points="74.9,-1696.39 74.9,-1756.39 422.9,-1756.39 422.9,-1696.39 74.9,-1696.39"/>
<text text-anchor="start" x="141.32" y="-1717.59" font-family="Helvetica,sans-Serif" font-weight="bold" font-size="32.00" fill="#ffffff"> &#160;&#160;&#160;&#160;&#160;&#160;Player &#160;&#160;&#160;&#160;&#160;&#160;</text>
<polygon fill="#e7e2dd" stroke="transparent" points="74.9,-1636.39 74.9,-1696.39 422.9,-1696.39 422.9,-1636.39 74.9,-1636.39"/>
<polygon fill="none" stroke="#29235c" points="74.9,-1636.39 74.9,-1696.39 422.9,-1696.39 422.9,-1636.39 74.9,-1636.39"/>
<text text-anchor="start" x="85.9" y="-1657.59" font-family="Helvetica,sans-Serif" font-weight="bold" font-size="32.00" fill="#29235c">id</text>
<text text-anchor="start" x="110.79" y="-1657.59" font-family="Helvetica,sans-Serif" font-size="32.00" fill="#29235c"> &#160;&#160;&#160;</text>
<text text-anchor="start" x="378.12" y="-1657.59" font-family="Helvetica,sans-Serif" font-style="italic" font-size="32.00" fill="#29235c">int</text>
<polygon fill="#e7e2dd" stroke="transparent" points="74.9,-1576.39 74.9,-1636.39 422.9,-1636.39 422.9,-1576.39 74.9,-1576.39"/>
<polygon fill="none" stroke="#29235c" points="74.9,-1576.39 74.9,-1636.39 422.9,-1636.39 422.9,-1576.39 74.9,-1576.39"/>
<text text-anchor="start" x="85.9" y="-1596.59" font-family="Helvetica,sans-Serif" font-size="32.00" fill="#29235c">login &#160;&#160;&#160;</text>
<text text-anchor="start" x="360.33" y="-1597.59" font-family="Helvetica,sans-Serif" font-style="italic" font-size="32.00" fill="#29235c">text</text>
<polygon fill="#e7e2dd" stroke="transparent" points="74.9,-1516.39 74.9,-1576.39 422.9,-1576.39 422.9,-1516.39 74.9,-1516.39"/>
<polygon fill="none" stroke="#29235c" points="74.9,-1516.39 74.9,-1576.39 422.9,-1576.39 422.9,-1516.39 74.9,-1516.39"/>
<text text-anchor="start" x="85.9" y="-1536.59" font-family="Helvetica,sans-Serif" font-size="32.00" fill="#29235c">avatarUrl &#160;&#160;&#160;</text>
<text text-anchor="start" x="360.33" y="-1537.59" font-family="Helvetica,sans-Serif" font-style="italic" font-size="32.00" fill="#29235c">text</text>
<polygon fill="#e7e2dd" stroke="transparent" points="74.9,-1456.39 74.9,-1516.39 422.9,-1516.39 422.9,-1456.39 74.9,-1456.39"/>
<polygon fill="none" stroke="#29235c" points="74.9,-1456.39 74.9,-1516.39 422.9,-1516.39 422.9,-1456.39 74.9,-1456.39"/>
<text text-anchor="start" x="85.9" y="-1476.59" font-family="Helvetica,sans-Serif" font-size="32.00" fill="#29235c">nbVictory &#160;&#160;&#160;</text>
<text text-anchor="start" x="378.12" y="-1477.59" font-family="Helvetica,sans-Serif" font-style="italic" font-size="32.00" fill="#29235c">int</text>
<polygon fill="#e7e2dd" stroke="transparent" points="74.9,-1396.39 74.9,-1456.39 422.9,-1456.39 422.9,-1396.39 74.9,-1396.39"/>
<polygon fill="none" stroke="#29235c" points="74.9,-1396.39 74.9,-1456.39 422.9,-1456.39 422.9,-1396.39 74.9,-1396.39"/>
<text text-anchor="start" x="85.9" y="-1416.59" font-family="Helvetica,sans-Serif" font-size="32.00" fill="#29235c">totalPlay &#160;&#160;&#160;</text>
<text text-anchor="start" x="378.12" y="-1417.59" font-family="Helvetica,sans-Serif" font-style="italic" font-size="32.00" fill="#29235c">int</text>
<polygon fill="#e7e2dd" stroke="transparent" points="74.9,-1336.39 74.9,-1396.39 422.9,-1396.39 422.9,-1336.39 74.9,-1336.39"/>
<polygon fill="none" stroke="#29235c" points="74.9,-1336.39 74.9,-1396.39 422.9,-1396.39 422.9,-1336.39 74.9,-1336.39"/>
<text text-anchor="start" x="85.9" y="-1356.59" font-family="Helvetica,sans-Serif" font-size="32.00" fill="#29235c">xp &#160;&#160;&#160;</text>
<text text-anchor="start" x="378.12" y="-1357.59" font-family="Helvetica,sans-Serif" font-style="italic" font-size="32.00" fill="#29235c">int</text>
<polygon fill="#e7e2dd" stroke="transparent" points="74.9,-1276.39 74.9,-1336.39 422.9,-1336.39 422.9,-1276.39 74.9,-1276.39"/>
<polygon fill="none" stroke="#29235c" points="74.9,-1276.39 74.9,-1336.39 422.9,-1336.39 422.9,-1276.39 74.9,-1276.39"/>
<text text-anchor="start" x="85.9" y="-1296.59" font-family="Helvetica,sans-Serif" font-size="32.00" fill="#29235c">TFASecret &#160;&#160;&#160;</text>
<text text-anchor="start" x="305.23" y="-1297.59" font-family="Helvetica,sans-Serif" font-style="italic" font-size="32.00" fill="#29235c">varchar</text>
<polygon fill="#e7e2dd" stroke="transparent" points="74.9,-1216.39 74.9,-1276.39 422.9,-1276.39 422.9,-1216.39 74.9,-1216.39"/>
<polygon fill="none" stroke="#29235c" points="74.9,-1216.39 74.9,-1276.39 422.9,-1276.39 422.9,-1216.39 74.9,-1216.39"/>
<text text-anchor="start" x="85.7" y="-1236.59" font-family="Helvetica,sans-Serif" font-size="32.00" fill="#29235c">TFAEnabled &#160;&#160;&#160;</text>
<text text-anchor="start" x="298.48" y="-1237.59" font-family="Helvetica,sans-Serif" font-style="italic" font-size="32.00" fill="#29235c">boolean</text>
<polygon fill="#e7e2dd" stroke="transparent" points="74.9,-1156.39 74.9,-1216.39 422.9,-1216.39 422.9,-1156.39 74.9,-1156.39"/>
<polygon fill="none" stroke="#29235c" points="74.9,-1156.39 74.9,-1216.39 422.9,-1216.39 422.9,-1156.39 74.9,-1156.39"/>
<text text-anchor="start" x="85.9" y="-1176.59" font-family="Helvetica,sans-Serif" font-size="32.00" fill="#29235c">FT_id &#160;&#160;&#160;</text>
<text text-anchor="start" x="305.23" y="-1177.59" font-family="Helvetica,sans-Serif" font-style="italic" font-size="32.00" fill="#29235c">varchar</text>
<polygon fill="none" stroke="#29235c" stroke-width="2" points="73.9,-1155.39 73.9,-1757.39 423.9,-1757.39 423.9,-1155.39 73.9,-1155.39"/>
</g>
<!-- Friends -->
<g id="Friends" class="node">
<title>Friends</title>
<ellipse fill="none" stroke="black" stroke-width="0" cx="951.7" cy="-2091.39" rx="222.98" ry="214.92"/>
<polygon fill="#1d71b8" stroke="transparent" points="796.7,-2181.39 796.7,-2241.39 1107.7,-2241.39 1107.7,-2181.39 796.7,-2181.39"/>
<polygon fill="none" stroke="#29235c" points="796.7,-2181.39 796.7,-2241.39 1107.7,-2241.39 1107.7,-2181.39 796.7,-2181.39"/>
<text text-anchor="start" x="836.62" y="-2202.59" font-family="Helvetica,sans-Serif" font-weight="bold" font-size="32.00" fill="#ffffff"> &#160;&#160;&#160;&#160;&#160;&#160;Friends &#160;&#160;&#160;&#160;&#160;&#160;</text>
<polygon fill="#e7e2dd" stroke="transparent" points="796.7,-2121.39 796.7,-2181.39 1107.7,-2181.39 1107.7,-2121.39 796.7,-2121.39"/>
<polygon fill="none" stroke="#29235c" points="796.7,-2121.39 796.7,-2181.39 1107.7,-2181.39 1107.7,-2121.39 796.7,-2121.39"/>
<text text-anchor="start" x="807.7" y="-2142.59" font-family="Helvetica,sans-Serif" font-weight="bold" font-size="32.00" fill="#29235c">id</text>
<text text-anchor="start" x="832.59" y="-2142.59" font-family="Helvetica,sans-Serif" font-size="32.00" fill="#29235c"> &#160;&#160;&#160;</text>
<text text-anchor="start" x="1062.92" y="-2142.59" font-family="Helvetica,sans-Serif" font-style="italic" font-size="32.00" fill="#29235c">int</text>
<polygon fill="#e7e2dd" stroke="transparent" points="796.7,-2061.39 796.7,-2121.39 1107.7,-2121.39 1107.7,-2061.39 796.7,-2061.39"/>
<polygon fill="none" stroke="#29235c" points="796.7,-2061.39 796.7,-2121.39 1107.7,-2121.39 1107.7,-2061.39 796.7,-2061.39"/>
<text text-anchor="start" x="807.7" y="-2081.59" font-family="Helvetica,sans-Serif" font-size="32.00" fill="#29235c">player &#160;&#160;&#160;</text>
<text text-anchor="start" x="1062.92" y="-2082.59" font-family="Helvetica,sans-Serif" font-style="italic" font-size="32.00" fill="#29235c">int</text>
<polygon fill="#e7e2dd" stroke="transparent" points="796.7,-2001.39 796.7,-2061.39 1107.7,-2061.39 1107.7,-2001.39 796.7,-2001.39"/>
<polygon fill="none" stroke="#29235c" points="796.7,-2001.39 796.7,-2061.39 1107.7,-2061.39 1107.7,-2001.39 796.7,-2001.39"/>
<text text-anchor="start" x="807.7" y="-2021.59" font-family="Helvetica,sans-Serif" font-size="32.00" fill="#29235c">friend &#160;&#160;&#160;</text>
<text text-anchor="start" x="1062.92" y="-2022.59" font-family="Helvetica,sans-Serif" font-style="italic" font-size="32.00" fill="#29235c">int</text>
<polygon fill="#e7e2dd" stroke="transparent" points="796.7,-1941.39 796.7,-2001.39 1107.7,-2001.39 1107.7,-1941.39 796.7,-1941.39"/>
<polygon fill="none" stroke="#29235c" points="796.7,-1941.39 796.7,-2001.39 1107.7,-2001.39 1107.7,-1941.39 796.7,-1941.39"/>
<text text-anchor="start" x="807.67" y="-1961.59" font-family="Helvetica,sans-Serif" font-size="32.00" fill="#29235c">isPending &#160;&#160;&#160;</text>
<text text-anchor="start" x="983.29" y="-1962.59" font-family="Helvetica,sans-Serif" font-style="italic" font-size="32.00" fill="#29235c">boolean</text>
<polygon fill="none" stroke="#29235c" stroke-width="2" points="795.2,-1940.39 795.2,-2242.39 1108.2,-2242.39 1108.2,-1940.39 795.2,-1940.39"/>
</g>
<!-- Player&#45;&gt;Friends -->
<!-- Player&#45;&gt;Friends -->
<g id="edge2" class="edge">
<title>Player:e&#45;&gt;Friends:w</title>
<path fill="none" stroke="#29235c" stroke-width="3" d="M423.9,-1666.39C525.72,-1666.39 469.64,-1788.33 533.8,-1867.39 628.16,-1983.64 641.94,-2086.66 785.59,-2091.23"/>
<polygon fill="#29235c" stroke="#29235c" stroke-width="3" points="785.65,-2094.73 795.7,-2091.39 785.76,-2087.73 785.65,-2094.73"/>
<text text-anchor="middle" x="801.93" y="-2100.99" font-family="Helvetica,sans-Serif" font-size="32.00" fill="#29235c">*</text>
<text text-anchor="middle" x="415.01" y="-1675.99" font-family="Helvetica,sans-Serif" font-size="32.00" fill="#29235c">1</text>
</g>
<!-- Player&#45;&gt;Friends -->
<!-- Player&#45;&gt;Friends -->
<g id="edge4" class="edge">
<title>Player:e&#45;&gt;Friends:w</title>
<path fill="none" stroke="#29235c" stroke-width="3" d="M423.9,-1666.39C525.72,-1666.39 463.97,-1793.3 533.8,-1867.39 625.61,-1964.79 656.78,-2028.11 785.45,-2031.26"/>
<polygon fill="#29235c" stroke="#29235c" stroke-width="3" points="785.66,-2034.77 795.7,-2031.39 785.75,-2027.77 785.66,-2034.77"/>
<text text-anchor="middle" x="801.93" y="-2040.99" font-family="Helvetica,sans-Serif" font-size="32.00" fill="#29235c">*</text>
<text text-anchor="middle" x="432.8" y="-1675.99" font-family="Helvetica,sans-Serif" font-size="32.00" fill="#29235c">1</text>
</g>
<!-- Match -->
<g id="Match" class="node">
<title>Match</title>
<ellipse fill="none" stroke="black" stroke-width="0" cx="951.7" cy="-1516.39" rx="214.92" ry="342.48"/>
<polygon fill="#1d71b8" stroke="transparent" points="801.7,-1696.39 801.7,-1756.39 1101.7,-1756.39 1101.7,-1696.39 801.7,-1696.39"/>
<polygon fill="none" stroke="#29235c" points="801.7,-1696.39 801.7,-1756.39 1101.7,-1756.39 1101.7,-1696.39 801.7,-1696.39"/>
<text text-anchor="start" x="845.89" y="-1717.59" font-family="Helvetica,sans-Serif" font-weight="bold" font-size="32.00" fill="#ffffff"> &#160;&#160;&#160;&#160;&#160;&#160;Match &#160;&#160;&#160;&#160;&#160;&#160;</text>
<polygon fill="#e7e2dd" stroke="transparent" points="801.7,-1636.39 801.7,-1696.39 1101.7,-1696.39 1101.7,-1636.39 801.7,-1636.39"/>
<polygon fill="none" stroke="#29235c" points="801.7,-1636.39 801.7,-1696.39 1101.7,-1696.39 1101.7,-1636.39 801.7,-1636.39"/>
<text text-anchor="start" x="812.7" y="-1657.59" font-family="Helvetica,sans-Serif" font-weight="bold" font-size="32.00" fill="#29235c">id</text>
<text text-anchor="start" x="837.59" y="-1657.59" font-family="Helvetica,sans-Serif" font-size="32.00" fill="#29235c"> &#160;&#160;&#160;</text>
<text text-anchor="start" x="1056.92" y="-1657.59" font-family="Helvetica,sans-Serif" font-style="italic" font-size="32.00" fill="#29235c">int</text>
<polygon fill="#e7e2dd" stroke="transparent" points="801.7,-1576.39 801.7,-1636.39 1101.7,-1636.39 1101.7,-1576.39 801.7,-1576.39"/>
<polygon fill="none" stroke="#29235c" points="801.7,-1576.39 801.7,-1636.39 1101.7,-1636.39 1101.7,-1576.39 801.7,-1576.39"/>
<text text-anchor="start" x="812.7" y="-1596.59" font-family="Helvetica,sans-Serif" font-size="32.00" fill="#29235c">playerHome &#160;&#160;&#160;</text>
<text text-anchor="start" x="1056.92" y="-1597.59" font-family="Helvetica,sans-Serif" font-style="italic" font-size="32.00" fill="#29235c">int</text>
<polygon fill="#e7e2dd" stroke="transparent" points="801.7,-1516.39 801.7,-1576.39 1101.7,-1576.39 1101.7,-1516.39 801.7,-1516.39"/>
<polygon fill="none" stroke="#29235c" points="801.7,-1516.39 801.7,-1576.39 1101.7,-1576.39 1101.7,-1516.39 801.7,-1516.39"/>
<text text-anchor="start" x="812.7" y="-1536.59" font-family="Helvetica,sans-Serif" font-size="32.00" fill="#29235c">playerForeign &#160;&#160;&#160;</text>
<text text-anchor="start" x="1056.92" y="-1537.59" font-family="Helvetica,sans-Serif" font-style="italic" font-size="32.00" fill="#29235c">int</text>
<polygon fill="#e7e2dd" stroke="transparent" points="801.7,-1456.39 801.7,-1516.39 1101.7,-1516.39 1101.7,-1456.39 801.7,-1456.39"/>
<polygon fill="none" stroke="#29235c" points="801.7,-1456.39 801.7,-1516.39 1101.7,-1516.39 1101.7,-1456.39 801.7,-1456.39"/>
<text text-anchor="start" x="812.7" y="-1476.59" font-family="Helvetica,sans-Serif" font-size="32.00" fill="#29235c">Winner &#160;&#160;&#160;</text>
<text text-anchor="start" x="1056.92" y="-1477.59" font-family="Helvetica,sans-Serif" font-style="italic" font-size="32.00" fill="#29235c">int</text>
<polygon fill="#e7e2dd" stroke="transparent" points="801.7,-1396.39 801.7,-1456.39 1101.7,-1456.39 1101.7,-1396.39 801.7,-1396.39"/>
<polygon fill="none" stroke="#29235c" points="801.7,-1396.39 801.7,-1456.39 1101.7,-1456.39 1101.7,-1396.39 801.7,-1396.39"/>
<text text-anchor="start" x="812.7" y="-1416.59" font-family="Helvetica,sans-Serif" font-size="32.00" fill="#29235c">HomeScore &#160;&#160;&#160;</text>
<text text-anchor="start" x="1056.92" y="-1417.59" font-family="Helvetica,sans-Serif" font-style="italic" font-size="32.00" fill="#29235c">int</text>
<polygon fill="#e7e2dd" stroke="transparent" points="801.7,-1336.39 801.7,-1396.39 1101.7,-1396.39 1101.7,-1336.39 801.7,-1336.39"/>
<polygon fill="none" stroke="#29235c" points="801.7,-1336.39 801.7,-1396.39 1101.7,-1396.39 1101.7,-1336.39 801.7,-1336.39"/>
<text text-anchor="start" x="812.7" y="-1356.59" font-family="Helvetica,sans-Serif" font-size="32.00" fill="#29235c">ForeignScore &#160;&#160;&#160;</text>
<text text-anchor="start" x="1056.92" y="-1357.59" font-family="Helvetica,sans-Serif" font-style="italic" font-size="32.00" fill="#29235c">int</text>
<polygon fill="#e7e2dd" stroke="transparent" points="801.7,-1276.39 801.7,-1336.39 1101.7,-1336.39 1101.7,-1276.39 801.7,-1276.39"/>
<polygon fill="none" stroke="#29235c" points="801.7,-1276.39 801.7,-1336.39 1101.7,-1336.39 1101.7,-1276.39 801.7,-1276.39"/>
<text text-anchor="start" x="812.23" y="-1296.59" font-family="Helvetica,sans-Serif" font-size="32.00" fill="#29235c">creationDate &#160;&#160;&#160;</text>
<text text-anchor="start" x="1028.57" y="-1297.59" font-family="Helvetica,sans-Serif" font-style="italic" font-size="32.00" fill="#29235c">date</text>
<polygon fill="none" stroke="#29235c" stroke-width="2" points="800.7,-1275.39 800.7,-1757.39 1102.7,-1757.39 1102.7,-1275.39 800.7,-1275.39"/>
</g>
<!-- Player&#45;&gt;Match -->
<!-- Player&#45;&gt;Match -->
<g id="edge6" class="edge">
<title>Player:e&#45;&gt;Match:w</title>
<path fill="none" stroke="#29235c" stroke-width="3" d="M423.9,-1666.39C590,-1666.39 629.53,-1608.82 790.43,-1606.46"/>
<polygon fill="#29235c" stroke="#29235c" stroke-width="3" points="790.73,-1609.96 800.7,-1606.39 790.68,-1602.96 790.73,-1609.96"/>
<text text-anchor="middle" x="806.93" y="-1615.99" font-family="Helvetica,sans-Serif" font-size="32.00" fill="#29235c">*</text>
<text text-anchor="middle" x="415.01" y="-1637.59" font-family="Helvetica,sans-Serif" font-size="32.00" fill="#29235c">1</text>
</g>
<!-- Player&#45;&gt;Match -->
<!-- Player&#45;&gt;Match -->
<g id="edge8" class="edge">
<title>Player:e&#45;&gt;Match:w</title>
<path fill="none" stroke="#29235c" stroke-width="3" d="M423.9,-1666.39C596.22,-1666.39 623.9,-1551.03 790.58,-1546.52"/>
<polygon fill="#29235c" stroke="#29235c" stroke-width="3" points="790.75,-1550.02 800.7,-1546.39 790.66,-1543.02 790.75,-1550.02"/>
<text text-anchor="middle" x="806.93" y="-1555.99" font-family="Helvetica,sans-Serif" font-size="32.00" fill="#29235c">*</text>
<text text-anchor="middle" x="432.8" y="-1637.59" font-family="Helvetica,sans-Serif" font-size="32.00" fill="#29235c">1</text>
</g>
<!-- Player&#45;&gt;Match -->
<!-- Player&#45;&gt;Match -->
<g id="edge10" class="edge">
<title>Player:e&#45;&gt;Match:w</title>
<path fill="none" stroke="#29235c" stroke-width="3" d="M423.9,-1666.39C606.05,-1666.39 614.84,-1493 790.56,-1486.57"/>
<polygon fill="#29235c" stroke="#29235c" stroke-width="3" points="790.77,-1490.07 800.7,-1486.39 790.64,-1483.07 790.77,-1490.07"/>
<text text-anchor="middle" x="806.93" y="-1495.99" font-family="Helvetica,sans-Serif" font-size="32.00" fill="#29235c">*</text>
<text text-anchor="middle" x="415.01" y="-1675.99" font-family="Helvetica,sans-Serif" font-size="32.00" fill="#29235c">1</text>
</g>
<!-- player_channels_channel -->
<g id="player_channels_channel" class="node">
<title>player_channels_channel</title>
<ellipse fill="none" stroke="black" stroke-width="0" cx="951.7" cy="-662.39" rx="362.99" ry="130.22"/>
<polygon fill="#1d71b8" stroke="transparent" points="697.7,-692.39 697.7,-752.39 1206.7,-752.39 1206.7,-692.39 697.7,-692.39"/>
<polygon fill="none" stroke="#29235c" points="697.7,-692.39 697.7,-752.39 1206.7,-752.39 1206.7,-692.39 697.7,-692.39"/>
<text text-anchor="start" x="708.56" y="-713.59" font-family="Helvetica,sans-Serif" font-weight="bold" font-size="32.00" fill="#ffffff"> &#160;&#160;&#160;&#160;&#160;&#160;player_channels_channel &#160;&#160;&#160;&#160;&#160;&#160;</text>
<polygon fill="#e7e2dd" stroke="transparent" points="697.7,-632.39 697.7,-692.39 1206.7,-692.39 1206.7,-632.39 697.7,-632.39"/>
<polygon fill="none" stroke="#29235c" points="697.7,-632.39 697.7,-692.39 1206.7,-692.39 1206.7,-632.39 697.7,-632.39"/>
<text text-anchor="start" x="708.7" y="-652.59" font-family="Helvetica,sans-Serif" font-size="32.00" fill="#29235c">user &#160;&#160;&#160;</text>
<text text-anchor="start" x="1161.92" y="-653.59" font-family="Helvetica,sans-Serif" font-style="italic" font-size="32.00" fill="#29235c">int</text>
<polygon fill="#e7e2dd" stroke="transparent" points="697.7,-572.39 697.7,-632.39 1206.7,-632.39 1206.7,-572.39 697.7,-572.39"/>
<polygon fill="none" stroke="#29235c" points="697.7,-572.39 697.7,-632.39 1206.7,-632.39 1206.7,-572.39 697.7,-572.39"/>
<text text-anchor="start" x="708.7" y="-592.59" font-family="Helvetica,sans-Serif" font-size="32.00" fill="#29235c">channel &#160;&#160;&#160;</text>
<text text-anchor="start" x="1161.92" y="-593.59" font-family="Helvetica,sans-Serif" font-style="italic" font-size="32.00" fill="#29235c">int</text>
<polygon fill="none" stroke="#29235c" stroke-width="2" points="696.2,-571.39 696.2,-753.39 1207.2,-753.39 1207.2,-571.39 696.2,-571.39"/>
</g>
<!-- Player&#45;&gt;player_channels_channel -->
<!-- Player&#45;&gt;player_channels_channel -->
<g id="edge12" class="edge">
<title>Player:e&#45;&gt;player_channels_channel:w</title>
<path fill="none" stroke="#29235c" stroke-width="3" d="M423.9,-1666.39C617.67,-1666.39 441.69,-971.86 533.8,-801.39 577.41,-720.68 599.87,-666.42 686.67,-662.6"/>
<polygon fill="#29235c" stroke="#29235c" stroke-width="3" points="686.78,-666.1 696.7,-662.39 686.63,-659.1 686.78,-666.1"/>
<text text-anchor="middle" x="702.93" y="-662.39" font-family="Helvetica,sans-Serif" font-size="32.00" fill="#29235c">*</text>
<text text-anchor="middle" x="432.8" y="-1675.99" font-family="Helvetica,sans-Serif" font-size="32.00" fill="#29235c">1</text>
</g>
<!-- player_blocked_players_player -->
<g id="player_blocked_players_player" class="node">
<title>player_blocked_players_player</title>
<ellipse fill="none" stroke="black" stroke-width="0" cx="951.7" cy="-983.39" rx="417.8" ry="172.57"/>
<polygon fill="#1d71b8" stroke="transparent" points="658.7,-1043.39 658.7,-1103.39 1245.7,-1103.39 1245.7,-1043.39 658.7,-1043.39"/>
<polygon fill="none" stroke="#29235c" points="658.7,-1043.39 658.7,-1103.39 1245.7,-1103.39 1245.7,-1043.39 658.7,-1043.39"/>
<text text-anchor="start" x="669.46" y="-1064.59" font-family="Helvetica,sans-Serif" font-weight="bold" font-size="32.00" fill="#ffffff"> &#160;&#160;&#160;&#160;&#160;&#160;player_blocked_players_player &#160;&#160;&#160;&#160;&#160;&#160;</text>
<polygon fill="#e7e2dd" stroke="transparent" points="658.7,-983.39 658.7,-1043.39 1245.7,-1043.39 1245.7,-983.39 658.7,-983.39"/>
<polygon fill="none" stroke="#29235c" points="658.7,-983.39 658.7,-1043.39 1245.7,-1043.39 1245.7,-983.39 658.7,-983.39"/>
<text text-anchor="start" x="669.7" y="-1004.59" font-family="Helvetica,sans-Serif" font-weight="bold" font-size="32.00" fill="#29235c">id</text>
<text text-anchor="start" x="694.59" y="-1004.59" font-family="Helvetica,sans-Serif" font-size="32.00" fill="#29235c"> &#160;&#160;&#160;</text>
<text text-anchor="start" x="1200.92" y="-1004.59" font-family="Helvetica,sans-Serif" font-style="italic" font-size="32.00" fill="#29235c">int</text>
<polygon fill="#e7e2dd" stroke="transparent" points="658.7,-923.39 658.7,-983.39 1245.7,-983.39 1245.7,-923.39 658.7,-923.39"/>
<polygon fill="none" stroke="#29235c" points="658.7,-923.39 658.7,-983.39 1245.7,-983.39 1245.7,-923.39 658.7,-923.39"/>
<text text-anchor="start" x="669.7" y="-943.59" font-family="Helvetica,sans-Serif" font-size="32.00" fill="#29235c">player &#160;&#160;&#160;</text>
<text text-anchor="start" x="1200.92" y="-944.59" font-family="Helvetica,sans-Serif" font-style="italic" font-size="32.00" fill="#29235c">int</text>
<polygon fill="#e7e2dd" stroke="transparent" points="658.7,-863.39 658.7,-923.39 1245.7,-923.39 1245.7,-863.39 658.7,-863.39"/>
<polygon fill="none" stroke="#29235c" points="658.7,-863.39 658.7,-923.39 1245.7,-923.39 1245.7,-863.39 658.7,-863.39"/>
<text text-anchor="start" x="669.7" y="-883.59" font-family="Helvetica,sans-Serif" font-size="32.00" fill="#29235c">BlockedPlayer &#160;&#160;&#160;</text>
<text text-anchor="start" x="1200.92" y="-884.59" font-family="Helvetica,sans-Serif" font-style="italic" font-size="32.00" fill="#29235c">int</text>
<polygon fill="none" stroke="#29235c" stroke-width="2" points="657.2,-862.39 657.2,-1104.39 1246.2,-1104.39 1246.2,-862.39 657.2,-862.39"/>
</g>
<!-- Player&#45;&gt;player_blocked_players_player -->
<!-- Player&#45;&gt;player_blocked_players_player -->
<g id="edge18" class="edge">
<title>Player:e&#45;&gt;player_blocked_players_player:w</title>
<path fill="none" stroke="#29235c" stroke-width="3" d="M423.9,-1666.39C537.88,-1666.39 492.33,-1271.55 533.8,-1165.39 572.23,-1067.01 550.11,-960.49 647.56,-953.73"/>
<polygon fill="#29235c" stroke="#29235c" stroke-width="3" points="647.83,-957.22 657.7,-953.39 647.59,-950.22 647.83,-957.22"/>
<text text-anchor="middle" x="663.93" y="-962.99" font-family="Helvetica,sans-Serif" font-size="32.00" fill="#29235c">*</text>
<text text-anchor="middle" x="415.01" y="-1637.59" font-family="Helvetica,sans-Serif" font-size="32.00" fill="#29235c">1</text>
</g>
<!-- Player&#45;&gt;player_blocked_players_player -->
<!-- Player&#45;&gt;player_blocked_players_player -->
<g id="edge20" class="edge">
<title>Player:e&#45;&gt;player_blocked_players_player:w</title>
<path fill="none" stroke="#29235c" stroke-width="3" d="M423.9,-1666.39C537.88,-1666.39 497.77,-1273.52 533.8,-1165.39 574.7,-1042.68 527.48,-901.07 647.57,-893.69"/>
<polygon fill="#29235c" stroke="#29235c" stroke-width="3" points="647.81,-897.18 657.7,-893.39 647.6,-890.19 647.81,-897.18"/>
<text text-anchor="middle" x="663.93" y="-902.99" font-family="Helvetica,sans-Serif" font-size="32.00" fill="#29235c">*</text>
<text text-anchor="middle" x="432.8" y="-1637.59" font-family="Helvetica,sans-Serif" font-size="32.00" fill="#29235c">1</text>
</g>
<!-- Channel -->
<g id="Channel" class="node">
<title>Channel</title>
<ellipse fill="none" stroke="black" stroke-width="0" cx="248.9" cy="-355.39" rx="227.88" ry="299.63"/>
<polygon fill="#1d71b8" stroke="transparent" points="89.9,-505.39 89.9,-565.39 407.9,-565.39 407.9,-505.39 89.9,-505.39"/>
<polygon fill="none" stroke="#29235c" points="89.9,-505.39 89.9,-565.39 407.9,-565.39 407.9,-505.39 89.9,-505.39"/>
<text text-anchor="start" x="127.08" y="-526.59" font-family="Helvetica,sans-Serif" font-weight="bold" font-size="32.00" fill="#ffffff"> &#160;&#160;&#160;&#160;&#160;&#160;Channel &#160;&#160;&#160;&#160;&#160;&#160;</text>
<polygon fill="#e7e2dd" stroke="transparent" points="89.9,-445.39 89.9,-505.39 407.9,-505.39 407.9,-445.39 89.9,-445.39"/>
<polygon fill="none" stroke="#29235c" points="89.9,-445.39 89.9,-505.39 407.9,-505.39 407.9,-445.39 89.9,-445.39"/>
<text text-anchor="start" x="100.9" y="-466.59" font-family="Helvetica,sans-Serif" font-weight="bold" font-size="32.00" fill="#29235c">id</text>
<text text-anchor="start" x="125.79" y="-466.59" font-family="Helvetica,sans-Serif" font-size="32.00" fill="#29235c"> &#160;&#160;&#160;</text>
<text text-anchor="start" x="363.12" y="-466.59" font-family="Helvetica,sans-Serif" font-style="italic" font-size="32.00" fill="#29235c">int</text>
<polygon fill="#e7e2dd" stroke="transparent" points="89.9,-385.39 89.9,-445.39 407.9,-445.39 407.9,-385.39 89.9,-385.39"/>
<polygon fill="none" stroke="#29235c" points="89.9,-385.39 89.9,-445.39 407.9,-445.39 407.9,-385.39 89.9,-385.39"/>
<text text-anchor="start" x="100.9" y="-405.59" font-family="Helvetica,sans-Serif" font-size="32.00" fill="#29235c">owner &#160;&#160;&#160;</text>
<text text-anchor="start" x="363.12" y="-406.59" font-family="Helvetica,sans-Serif" font-style="italic" font-size="32.00" fill="#29235c">int</text>
<polygon fill="#e7e2dd" stroke="transparent" points="89.9,-325.39 89.9,-385.39 407.9,-385.39 407.9,-325.39 89.9,-325.39"/>
<polygon fill="none" stroke="#29235c" points="89.9,-325.39 89.9,-385.39 407.9,-385.39 407.9,-325.39 89.9,-325.39"/>
<text text-anchor="start" x="100.61" y="-345.59" font-family="Helvetica,sans-Serif" font-size="32.00" fill="#29235c">name &#160;&#160;&#160;</text>
<text text-anchor="start" x="215.73" y="-346.59" font-family="Helvetica,sans-Serif" font-style="italic" font-size="32.00" fill="#29235c">varchar(500)</text>
<polygon fill="#e7e2dd" stroke="transparent" points="89.9,-265.39 89.9,-325.39 407.9,-325.39 407.9,-265.39 89.9,-265.39"/>
<polygon fill="none" stroke="#29235c" points="89.9,-265.39 89.9,-325.39 407.9,-325.39 407.9,-265.39 89.9,-265.39"/>
<text text-anchor="start" x="100.9" y="-285.59" font-family="Helvetica,sans-Serif" font-size="32.00" fill="#29235c">type &#160;&#160;&#160;</text>
<text text-anchor="start" x="290.23" y="-286.59" font-family="Helvetica,sans-Serif" font-style="italic" font-size="32.00" fill="#29235c">varchar</text>
<polygon fill="#e7e2dd" stroke="transparent" points="89.9,-205.39 89.9,-265.39 407.9,-265.39 407.9,-205.39 89.9,-205.39"/>
<polygon fill="none" stroke="#29235c" points="89.9,-205.39 89.9,-265.39 407.9,-265.39 407.9,-205.39 89.9,-205.39"/>
<text text-anchor="start" x="100.9" y="-225.59" font-family="Helvetica,sans-Serif" font-size="32.00" fill="#29235c">password &#160;&#160;&#160;</text>
<text text-anchor="start" x="290.23" y="-226.59" font-family="Helvetica,sans-Serif" font-style="italic" font-size="32.00" fill="#29235c">varchar</text>
<polygon fill="#e7e2dd" stroke="transparent" points="89.9,-145.39 89.9,-205.39 407.9,-205.39 407.9,-145.39 89.9,-145.39"/>
<polygon fill="none" stroke="#29235c" points="89.9,-145.39 89.9,-205.39 407.9,-205.39 407.9,-145.39 89.9,-145.39"/>
<text text-anchor="start" x="100.9" y="-165.59" font-family="Helvetica,sans-Serif" font-size="32.00" fill="#29235c">creationDate &#160;&#160;&#160;</text>
<text text-anchor="start" x="334.64" y="-166.59" font-family="Helvetica,sans-Serif" font-style="italic" font-size="32.00" fill="#29235c">date</text>
<polygon fill="none" stroke="#29235c" stroke-width="2" points="88.9,-144.39 88.9,-566.39 408.9,-566.39 408.9,-144.39 88.9,-144.39"/>
</g>
<!-- Channel&#45;&gt;player_channels_channel -->
<!-- Channel&#45;&gt;player_channels_channel -->
<g id="edge14" class="edge">
<title>Channel:e&#45;&gt;player_channels_channel:w</title>
<path fill="none" stroke="#29235c" stroke-width="3" d="M408.9,-475.39C475.53,-475.39 613.09,-590.76 686.37,-601.58"/>
<polygon fill="#29235c" stroke="#29235c" stroke-width="3" points="686.46,-605.09 696.7,-602.39 687.01,-598.11 686.46,-605.09"/>
<text text-anchor="middle" x="702.93" y="-573.59" font-family="Helvetica,sans-Serif" font-size="32.00" fill="#29235c">*</text>
<text text-anchor="middle" x="400.01" y="-446.59" font-family="Helvetica,sans-Serif" font-size="32.00" fill="#29235c">1</text>
</g>
<!-- Message -->
<g id="Message" class="node">
<title>Message</title>
<ellipse fill="none" stroke="black" stroke-width="0" cx="951.7" cy="-257.39" rx="214.92" ry="257.27"/>
<polygon fill="#1d71b8" stroke="transparent" points="801.7,-377.39 801.7,-437.39 1101.7,-437.39 1101.7,-377.39 801.7,-377.39"/>
<polygon fill="none" stroke="#29235c" points="801.7,-377.39 801.7,-437.39 1101.7,-437.39 1101.7,-377.39 801.7,-377.39"/>
<text text-anchor="start" x="824.55" y="-398.59" font-family="Helvetica,sans-Serif" font-weight="bold" font-size="32.00" fill="#ffffff"> &#160;&#160;&#160;&#160;&#160;&#160;Message &#160;&#160;&#160;&#160;&#160;&#160;</text>
<polygon fill="#e7e2dd" stroke="transparent" points="801.7,-317.39 801.7,-377.39 1101.7,-377.39 1101.7,-317.39 801.7,-317.39"/>
<polygon fill="none" stroke="#29235c" points="801.7,-317.39 801.7,-377.39 1101.7,-377.39 1101.7,-317.39 801.7,-317.39"/>
<text text-anchor="start" x="812.7" y="-338.59" font-family="Helvetica,sans-Serif" font-weight="bold" font-size="32.00" fill="#29235c">id</text>
<text text-anchor="start" x="837.59" y="-338.59" font-family="Helvetica,sans-Serif" font-size="32.00" fill="#29235c"> &#160;&#160;&#160;</text>
<text text-anchor="start" x="1056.92" y="-338.59" font-family="Helvetica,sans-Serif" font-style="italic" font-size="32.00" fill="#29235c">int</text>
<polygon fill="#e7e2dd" stroke="transparent" points="801.7,-257.39 801.7,-317.39 1101.7,-317.39 1101.7,-257.39 801.7,-257.39"/>
<polygon fill="none" stroke="#29235c" points="801.7,-257.39 801.7,-317.39 1101.7,-317.39 1101.7,-257.39 801.7,-257.39"/>
<text text-anchor="start" x="812.7" y="-277.59" font-family="Helvetica,sans-Serif" font-size="32.00" fill="#29235c">creator &#160;&#160;&#160;</text>
<text text-anchor="start" x="1056.92" y="-278.59" font-family="Helvetica,sans-Serif" font-style="italic" font-size="32.00" fill="#29235c">int</text>
<polygon fill="#e7e2dd" stroke="transparent" points="801.7,-197.39 801.7,-257.39 1101.7,-257.39 1101.7,-197.39 801.7,-197.39"/>
<polygon fill="none" stroke="#29235c" points="801.7,-197.39 801.7,-257.39 1101.7,-257.39 1101.7,-197.39 801.7,-197.39"/>
<text text-anchor="start" x="812.7" y="-217.59" font-family="Helvetica,sans-Serif" font-size="32.00" fill="#29235c">content &#160;&#160;&#160;</text>
<text text-anchor="start" x="1039.13" y="-218.59" font-family="Helvetica,sans-Serif" font-style="italic" font-size="32.00" fill="#29235c">text</text>
<polygon fill="#e7e2dd" stroke="transparent" points="801.7,-137.39 801.7,-197.39 1101.7,-197.39 1101.7,-137.39 801.7,-137.39"/>
<polygon fill="none" stroke="#29235c" points="801.7,-137.39 801.7,-197.39 1101.7,-197.39 1101.7,-137.39 801.7,-137.39"/>
<text text-anchor="start" x="812.7" y="-157.59" font-family="Helvetica,sans-Serif" font-size="32.00" fill="#29235c">channelid &#160;&#160;&#160;</text>
<text text-anchor="start" x="1056.92" y="-158.59" font-family="Helvetica,sans-Serif" font-style="italic" font-size="32.00" fill="#29235c">int</text>
<polygon fill="#e7e2dd" stroke="transparent" points="801.7,-77.39 801.7,-137.39 1101.7,-137.39 1101.7,-77.39 801.7,-77.39"/>
<polygon fill="none" stroke="#29235c" points="801.7,-77.39 801.7,-137.39 1101.7,-137.39 1101.7,-77.39 801.7,-77.39"/>
<text text-anchor="start" x="812.23" y="-97.59" font-family="Helvetica,sans-Serif" font-size="32.00" fill="#29235c">creationDate &#160;&#160;&#160;</text>
<text text-anchor="start" x="1028.57" y="-98.59" font-family="Helvetica,sans-Serif" font-style="italic" font-size="32.00" fill="#29235c">date</text>
<polygon fill="none" stroke="#29235c" stroke-width="2" points="800.7,-76.39 800.7,-438.39 1102.7,-438.39 1102.7,-76.39 800.7,-76.39"/>
</g>
<!-- Channel&#45;&gt;Message -->
<!-- Channel&#45;&gt;Message -->
<g id="edge16" class="edge">
<title>Channel:e&#45;&gt;Message:w</title>
<path fill="none" stroke="#29235c" stroke-width="3" d="M408.9,-475.39C626.94,-475.39 580.74,-176.94 790.52,-167.61"/>
<polygon fill="#29235c" stroke="#29235c" stroke-width="3" points="790.78,-171.11 800.7,-167.39 790.63,-164.11 790.78,-171.11"/>
<text text-anchor="middle" x="806.93" y="-138.59" font-family="Helvetica,sans-Serif" font-size="32.00" fill="#29235c">*</text>
<text text-anchor="middle" x="417.8" y="-446.59" font-family="Helvetica,sans-Serif" font-size="32.00" fill="#29235c">1</text>
</g>
</g>
</svg>
